<svg width="120" height="120" viewBox="0 0 120 120" fill="none" xmlns="http://www.w3.org/2000/svg">
<g opacity="0.2">
<path d="M109 120H11V0H109V120ZM15.3272 115.662H104.673V4.338H15.3272V115.662Z" fill="#3F4F8B"/>
<path d="M100.346 36.1356H19.6544V8.67601H100.346V36.1356ZM23.9816 31.7976H96.0184V13.014H23.9816V31.7976Z" fill="#3F4F8B"/>
<path d="M32.5386 47.4143H19.557V53.9214H32.5386V47.4143Z" fill="#3F4F8B"/>
<path d="M100.346 47.3493H87.364V53.8563H100.346V47.3493Z" fill="#3F4F8B"/>
<path d="M55.1373 47.3493H42.1557V53.8563H55.1373V47.3493Z" fill="#3F4F8B"/>
<path d="M32.6035 65.4713H19.6219V71.9783H32.6035V65.4713Z" fill="#3F4F8B"/>
<path d="M55.1806 65.4713H42.199V71.9783H55.1806V65.4713Z" fill="#3F4F8B"/>
<path d="M32.6035 83.5933H19.6219V90.1003H32.6035V83.5933Z" fill="#3F4F8B"/>
<path d="M55.8946 101.715H19.7193V108.222H55.8946V101.715Z" fill="#3F4F8B"/>
<path d="M55.1806 83.5933H42.199V90.1003H55.1806V83.5933Z" fill="#3F4F8B"/>
<path d="M77.7469 47.3493H64.7653V53.8563H77.7469V47.3493Z" fill="#3F4F8B"/>
<path d="M77.7685 65.4713H64.787V71.9783H77.7685V65.4713Z" fill="#3F4F8B"/>
<path d="M77.7685 83.5933H64.787V90.1003H77.7685V83.5933Z" fill="#3F4F8B"/>
<path d="M77.7036 101.715H64.7221V108.222H77.7036V101.715Z" fill="#3F4F8B"/>
<path d="M100.346 65.4713H87.364V108.222H100.346V65.4713Z" fill="#3F4F8B"/>
</g>
</svg>
