<svg width="75" height="59" viewBox="0 0 75 59" fill="none" xmlns="http://www.w3.org/2000/svg">
<path d="M74.7655 14.658L68.0237 7.78735H59.8379L70.5017 19.2927L74.7655 14.658Z" fill="#FF744F"/>
<path d="M67.5116 6.11674L62.4446 0H23.0963L18.1489 6.11674H67.5116Z" fill="#FF744F"/>
<path d="M4.32361 9.62061L0 14.6494L31.7435 52.1722L35.9389 47.1435L4.32361 9.62061Z" fill="white"/>
<path d="M64.6566 16.3799L32.8618 54.2369L37.0316 59L69.0058 21.0317L64.6566 16.3799Z" fill="white"/>
<path d="M9.818 13.0131L20.627 0H12.2532L5.75928 8.00145L9.818 13.0131Z" fill="white"/>
<path d="M52.0453 28.6304C50.5243 25.7777 47.2517 24.2099 42.8854 24.2099H35.1268V17.7848H51.0456V13.3557H30.2734V37.2915L33.623 41.2837H41.2704L45.4061 36.4263C44.1592 36.7814 42.865 36.9403 41.5695 36.8974H35.1268V28.3306H42.4496C46.0726 28.3306 48.0976 29.727 48.0976 32.4427C48.0956 32.7292 48.0756 33.0153 48.0378 33.2994L52.0453 28.6304Z" fill="white"/>
<path d="M42.1516 7.93298H23.4131V29.1103L28.2665 34.8929V11.9508H42.1516V7.93298Z" fill="white"/>
</svg>
