<svg xmlns="http://www.w3.org/2000/svg" width="58" height="45" fill="none" xmlns:v="https://vecta.io/nano"><path d="M57.013 11.18l-5.141-5.24H45.63l8.132 8.775 3.251-3.535zm-5.531-6.515L47.618 0H17.613L13.84 4.665h37.642z" fill="#ff744f"/><path d="M3.297 7.338L0 11.173l24.206 28.619 3.199-3.835L3.297 7.338zm46.007 5.155L25.059 41.367 28.239 45l24.382-28.959-3.317-3.548zM7.487 9.925L15.729 0H9.344L4.392 6.103l3.095 3.822zm32.957 12.052c-1.16-2.176-3.655-3.372-6.985-3.372h-5.916v-4.9h12.139v-3.378h-15.84v18.256l2.554 3.045h5.832l3.154-3.705c-.951.271-1.938.392-2.926.359h-4.913v-6.534h5.584c2.763 0 4.307 1.065 4.307 3.136a5.25 5.25 0 0 1-.046.653l3.056-3.561zM32.143 6.05H17.854v16.152l3.701 4.41V9.115h10.588V6.05z" fill="#3f4f8b"/></svg>