<svg width="20" height="20" viewBox="0 0 20 20" fill="none" xmlns="http://www.w3.org/2000/svg">
<g clip-path="url(#clip0_2145_1579)">
<path d="M19.4576 14.678L16.6665 11.8869C15.6697 10.8901 13.9752 11.2889 13.5764 12.5847C13.2774 13.4819 12.2806 13.9803 11.3835 13.7809C9.38985 13.2825 6.69847 10.6908 6.20007 8.59746C5.90103 7.7003 6.49911 6.70349 7.39624 6.40448C8.69209 6.00576 9.09081 4.31119 8.094 3.31438L5.30294 0.523324C4.5055 -0.174441 3.30933 -0.174441 2.61156 0.523324L0.717631 2.41726C-1.1763 4.41087 0.916993 9.69395 5.60199 14.3789C10.287 19.0639 15.5701 21.2569 17.5637 19.2633L19.4576 17.3694C20.1554 16.5719 20.1554 15.3757 19.4576 14.678Z" fill="white"/>
</g>
<defs>
<clipPath id="clip0_2145_1579">
<rect width="20" height="20" fill="white"/>
</clipPath>
</defs>
</svg>
