<svg xmlns="http://www.w3.org/2000/svg" width="60" height="60" fill="none" xmlns:v="https://vecta.io/nano"><path d="M46.786 39.373c3.786-4.085 6.105-9.549 6.105-15.545C52.89 11.206 42.622.938 30 .938S7.11 11.206 7.11 23.828c0 6.458 2.689 12.299 7.005 16.465L8.474 52.41c-.072.155-.101.328-.082.498a.94.94 0 0 0 .591.771.94.94 0 0 0 .502.05l6.923-1.21 3.531 6.077a.94.94 0 0 0 .361.352c.15.082.32.121.492.114s.337-.062.479-.158.256-.228.328-.383l5.576-11.977c.926.114 1.868.174 2.824.174 1.375 0 2.722-.122 4.031-.356l4.209 9.771c.068.157.177.293.317.393s.304.159.475.172a.94.94 0 0 0 .495-.099c.153-.078.281-.196.371-.341l3.706-5.972 6.885 1.41c.168.035.342.022.503-.035s.304-.158.412-.291.178-.293.201-.462a.94.94 0 0 0-.067-.5l-4.752-11.033zM20.658 56.101l-2.957-5.089a.94.94 0 0 0-.972-.452l-5.797 1.013 4.648-9.983c2.766 2.25 6.066 3.868 9.678 4.632l-4.599 9.879zM8.985 23.828C8.985 12.24 18.412 2.813 30 2.813s21.015 9.427 21.015 21.015S41.588 44.843 30 44.843 8.985 35.416 8.985 23.828zm34.355 24.49c-.188-.039-.383-.019-.559.057s-.325.204-.426.367l-3.103 5.001-3.357-7.795a22.87 22.87 0 0 0 9.46-5.157l3.751 8.708-5.766-1.181zm2.416-18.038l-.124-1.009c-.153-1.218-.229-1.829-.144-2.313s.366-1.032.927-2.124l.462-.905c.889-1.758.521-3.845-.916-5.193l-.744-.693c-.9-.835-1.352-1.254-1.597-1.679s-.383-1.026-.655-2.222l-.228-.99c-.449-1.918-2.073-3.28-4.039-3.389l-1.015-.053c-1.226-.061-1.841-.092-2.303-.26s-.952-.54-1.931-1.281l-.811-.612a4.37 4.37 0 0 0-5.273 0l-.811.612c-.978.741-1.47 1.113-1.931 1.281s-1.077.198-2.303.26l-1.015.053c-1.967.109-3.59 1.472-4.039 3.389l-.228.99c-.273 1.197-.41 1.797-.655 2.223s-.697.844-1.597 1.679l-.744.693c-1.436 1.348-1.804 3.435-.916 5.193l.462.905c.56 1.092.841 1.64.926 2.124s.009 1.095-.144 2.313l-.124 1.009c-.234 1.956.826 3.791 2.637 4.566l.936.397c1.131.477 1.699.716 2.075 1.032s.71.833 1.376 1.864l.553.853c.833 1.273 2.211 1.996 3.664 1.996a4.46 4.46 0 0 0 1.291-.192l.972-.298c1.173-.362 1.762-.544 2.253-.544s1.08.182 2.253.544l.972.298c1.885.57 3.877-.155 4.955-1.803l.553-.853c.666-1.031 1-1.549 1.376-1.864s.944-.555 2.075-1.031l.936-.397c1.811-.775 2.87-2.611 2.637-4.566zm-1.01-6.301c-1.29 2.515-1.326 2.721-.974 5.525l.123.998c.136 1.14-.458 2.168-1.513 2.62l-.926.392c-2.604 1.097-2.765 1.232-4.298 3.606l-.547.843c-.628.961-1.744 1.367-2.843 1.035l-.962-.294c-2.7-.833-2.91-.833-5.611 0l-.961.294c-1.099.333-2.215-.074-2.843-1.035l-.547-.843c-1.533-2.374-1.694-2.509-4.298-3.606l-.926-.392c-1.055-.452-1.649-1.481-1.513-2.62l.123-.998c.352-2.804.315-3.011-.974-5.525l-.457-.896c-.518-1.024-.312-2.194.525-2.98l.736-.686c2.072-1.922 2.177-2.104 2.805-4.859l.226-.98c.262-1.118 1.172-1.881 2.318-1.945l1.004-.052c2.823-.141 3.02-.212 5.273-1.919l.803-.606c.459-.344.986-.516 1.513-.516s1.053.172 1.513.516l.803.606c2.253 1.707 2.45 1.778 5.273 1.919l1.004.052c1.146.064 2.056.827 2.318 1.945l.226.98c.629 2.755.733 2.937 2.805 4.859l.736.686c.837.786 1.043 1.955.525 2.98l-.457.896zm-6.703-3.276l-5.014-.244-1.782-4.692c-.198-.522-.688-.86-1.248-.86s-1.05.337-1.248.86l-1.782 4.692-5.013.244c-.559.027-1.032.388-1.205.921s-.003 1.102.433 1.453l3.912 3.145-1.317 4.844c-.147.54.051 1.101.504 1.43a1.33 1.33 0 0 0 .784.257c.253 0 .507-.073.732-.22l4.2-2.749 4.2 2.749c.468.306 1.063.292 1.516-.037s.65-.89.503-1.43l-1.317-4.844 3.912-3.144c.436-.351.606-.921.433-1.453s-.646-.893-1.205-.921zm-8.548-4.271h0zm3.957 8.55c-.202.163-.353.381-.433.628s-.087.512-.019.763l1.036 3.812-3.305-2.163c-.217-.142-.471-.218-.731-.218s-.514.076-.731.218l-3.305 2.164L27 26.37c.068-.251.062-.515-.019-.762s-.231-.465-.433-.628l-3.079-2.475 3.945-.192c.259-.012.51-.101.72-.253s.371-.363.463-.606L30 17.761l1.402 3.693c.092.243.253.453.463.606s.46.241.72.253l3.946.192-3.079 2.475z" fill="#ff744f"/></svg>