<svg xmlns="http://www.w3.org/2000/svg" width="60" height="60" fill="none" xmlns:v="https://vecta.io/nano"><g clip-path="url(#A)" fill="#ff744f"><path d="M59.158 29.818l-3.462-15.581A5.38 5.38 0 0 0 50.413 10 5.42 5.42 0 0 0 45 15.412v.839a1.25 1.25 0 1 0 2.5 0v-.839c0-1.605 1.306-2.911 2.913-2.911 1.374 0 2.544.939 2.842 2.28l3.462 15.58a33.04 33.04 0 0 1 .759 5.89h-.102C56.736 29.951 51.464 25 45 25c-5.652 0-10.384 3.795-11.925 8.953C32.31 33.147 31.302 32.5 30 32.5s-2.31.647-3.075 1.453C25.384 28.795 20.652 25 15 25 8.536 25 3.264 29.951 2.626 36.25h-.102c.076-1.982.33-3.953.759-5.89l3.462-15.579c.298-1.343 1.467-2.281 2.842-2.281 1.606 0 2.913 1.306 2.913 2.911v.839a1.25 1.25 0 0 0 1.25 1.25A1.25 1.25 0 0 0 15 16.25v-.839A5.42 5.42 0 0 0 9.587 10a5.38 5.38 0 0 0-5.283 4.238L.842 29.818A35.55 35.55 0 0 0 0 37.5a1.25 1.25 0 0 0 .772 1.155 1.25 1.25 0 0 0 .478.095h1.376C3.264 45.049 8.536 50 15 50c6.786 0 12.299-5.443 12.468-12.189C27.72 37.112 28.719 35 30 35c1.249 0 2.235 1.994 2.531 2.807C32.699 44.555 38.213 50 45 50c6.464 0 11.736-4.951 12.374-11.25h1.376A1.25 1.25 0 0 0 60 37.5a35.57 35.57 0 0 0-.842-7.682zM15 47.5c-5.515 0-10-4.486-10-10s4.485-10 10-10 10 4.486 10 10-4.485 10-10 10zm30 0c-5.515 0-10-4.486-10-10s4.485-10 10-10 10 4.486 10 10-4.485 10-10 10zM15 30a7.51 7.51 0 0 0-7.5 7.5 1.25 1.25 0 0 0 1.25 1.25A1.25 1.25 0 0 0 10 37.5a5.01 5.01 0 0 1 5-5 1.25 1.25 0 0 0 1.25-1.25A1.25 1.25 0 0 0 15 30zm30 0a7.51 7.51 0 0 0-7.5 7.5 1.25 1.25 0 0 0 1.25 1.25A1.25 1.25 0 0 0 40 37.5a5.01 5.01 0 0 1 5-5 1.25 1.25 0 0 0 1.25-1.25A1.25 1.25 0 0 0 45 30z"/></g><defs><clipPath id="A"><path fill="#fff" d="M0 0h60v60H0z"/></clipPath></defs></svg>