<svg xmlns="http://www.w3.org/2000/svg" width="60" height="60" fill="#ff744f" fill-rule="evenodd" xmlns:v="https://vecta.io/nano"><path d="M29.79 59.921c.139.027.282.027.421 0 14.672-2.821 25.277-15.66 25.277-30.602V8.809a1.11 1.11 0 0 0-.78-1.062L30.369.121a1.11 1.11 0 0 0-.739 0L5.292 7.747c-.464.145-.78.576-.78 1.062v20.51c0 14.942 10.605 27.781 25.278 30.602zM30 2.339l23.262 7.288v19.692A28.94 28.94 0 0 1 30 57.694 28.94 28.94 0 0 1 6.738 29.319V9.627L30 2.339zm-.269 50.852a1.11 1.11 0 0 0 .537 0c10.945-2.721 18.657-12.658 18.657-23.872V13.63a1.11 1.11 0 0 0-.78-1.062L30.333 6.987c-.217-.068-.449-.068-.666 0l-17.812 5.581c-.464.146-.78.576-.78 1.062v15.689a24.64 24.64 0 0 0 18.657 23.872zM30 50.962c-9.76-2.557-16.699-11.434-16.699-21.643V14.448L30 9.216l16.699 5.232v14.871c0 10.103-6.893 19.074-16.699 21.643zm-2.916-12.527c.435.435 1.14.435 1.575 0L40.763 26.33c.435-.435.435-1.14 0-1.574l-3.977-3.977c-.209-.209-.492-.326-.787-.326s-.578.117-.787.326l-7.34 7.34-3.083-3.083c-.209-.209-.492-.326-.787-.326a1.11 1.11 0 0 0-.787.326l-3.978 3.977c-.435.435-.435 1.14 0 1.574l7.847 7.847zM21.598 29.8l2.403-2.403 3.083 3.083c.209.209.492.326.787.326s.578-.117.787-.326l7.34-7.34 2.403 2.403-10.53 10.53-6.273-6.273z"/></svg>