<svg xmlns="http://www.w3.org/2000/svg" width="60" height="60" fill="#ff744f" xmlns:v="https://vecta.io/nano"><path d="M30 11.719c-.647 0-1.172.525-1.172 1.172s.525 1.172 1.172 1.172 1.172-.525 1.172-1.172-.525-1.172-1.172-1.172zM10.547 32.813c.647 0 1.172-.525 1.172-1.172s-.525-1.172-1.172-1.172-1.172.525-1.172 1.172.525 1.172 1.172 1.172zM39.375 0c-10.55 0-19.209 7.274-19.879 16.436C9.449 16.94 0 24.185 0 33.984c0 4.095 1.62 8.063 4.57 11.207a7.13 7.13 0 0 1-1.883 6.715 1.17 1.17 0 0 0 .829 2 12.93 12.93 0 0 0 8.956-3.62c2.331.795 5.373 1.276 8.153 1.276 10.549 0 19.207-7.272 19.878-16.432 2.454-.109 5.006-.562 7.025-1.25a12.93 12.93 0 0 0 8.956 3.62 1.17 1.17 0 0 0 .829-2 7.13 7.13 0 0 1-1.883-6.715C58.38 25.641 60 21.673 60 17.578 60 7.396 49.823 0 39.375 0zm-18.75 49.219c-2.766 0-5.917-.543-8.029-1.383a1.17 1.17 0 0 0-1.298.297c-1.415 1.547-3.255 2.625-5.259 3.121a9.48 9.48 0 0 0 .715-6.975 1.17 1.17 0 0 0-.287-.495c-2.659-2.738-4.123-6.219-4.123-9.8 0-8.258 8.372-15.234 18.281-15.234 9.358 0 17.578 6.507 17.578 15.234 0 8.4-7.885 15.234-17.578 15.234zm32.908-21.841a1.17 1.17 0 0 0-.286.495 9.48 9.48 0 0 0 .715 6.975c-2.005-.495-3.844-1.574-5.259-3.121a1.17 1.17 0 0 0-1.298-.298c-1.83.728-4.44 1.232-6.904 1.354-.343-4.432-2.553-8.597-6.332-11.689h15.286a1.172 1.172 0 1 0 0-2.344H30.567c-2.66-1.354-5.647-2.144-8.721-2.309.673-7.871 8.278-14.097 17.529-14.097 9.91 0 18.281 6.976 18.281 15.234 0 3.581-1.464 7.062-4.123 9.8zM30 30.469H15.234a1.172 1.172 0 1 0 0 2.344H30a1.172 1.172 0 1 0 0-2.344zm0 7.031H10.547a1.172 1.172 0 1 0 0 2.344H30a1.172 1.172 0 1 0 0-2.344zm19.453-25.781H34.688a1.172 1.172 0 1 0 0 2.344h14.766a1.172 1.172 0 1 0 0-2.344z"/></svg>