<?xml version="1.0" standalone="no"?>
<!DOCTYPE svg PUBLIC "-//W3C//DTD SVG 20010904//EN"
 "http://www.w3.org/TR/2001/REC-SVG-20010904/DTD/svg10.dtd">
<svg version="1.0" xmlns="http://www.w3.org/2000/svg"
 width="720.000000pt" height="720.000000pt" viewBox="0 0 720.000000 720.000000"
 preserveAspectRatio="xMidYMid meet">
<metadata>
Created by potrace 1.14, written by Peter Selinger 2001-2017
</metadata>
<g transform="translate(0.000000,720.000000) scale(0.100000,-0.100000)"
fill="#000000" stroke="none">
<path d="M1119 6348 c-24 -29 -46 -55 -50 -58 -3 -3 -22 -27 -42 -53 -20 -26
-42 -54 -49 -61 -7 -7 -24 -28 -38 -46 -27 -37 -72 -92 -80 -100 -3 -3 -70
-86 -149 -185 -80 -99 -149 -183 -154 -186 -18 -13 -19 -12 320 -429 25 -30
49 -55 53 -55 4 0 56 59 115 130 131 159 172 209 207 249 15 17 75 90 133 161
59 72 117 141 128 155 19 22 50 59 129 155 9 11 54 65 99 120 46 55 93 111
104 124 11 14 34 41 50 60 67 79 105 71 -338 71 l-395 0 -43 -52z"/>
<path d="M2140 6343 c-24 -32 -85 -108 -135 -169 -49 -60 -104 -128 -122 -150
-17 -21 -61 -75 -96 -119 -36 -44 -64 -81 -62 -83 1 -2 4225 -4 4608 -2 53 0
57 8 25 43 -13 13 -32 34 -43 48 -11 13 -40 49 -65 79 -25 30 -52 63 -60 73
-8 11 -20 24 -25 31 -6 6 -30 36 -55 66 -25 30 -47 57 -50 60 -3 3 -25 30 -50
60 -25 30 -51 61 -58 68 -6 8 -17 22 -22 33 -11 19 -46 19 -1878 19 l-1867 0
-45 -57z"/>
<path d="M5690 5660 c-19 -5 -19 -7 12 -40 18 -19 83 -89 143 -155 61 -66 119
-129 130 -141 11 -11 61 -65 110 -118 50 -54 104 -113 120 -130 17 -18 75 -81
130 -141 55 -59 114 -123 130 -141 17 -17 70 -75 119 -128 l90 -97 40 44 c23
24 75 81 116 126 41 46 91 100 110 120 106 113 130 140 130 148 0 9 -110 123
-478 498 l-153 156 -364 2 c-200 1 -373 0 -385 -3z"/>
<path d="M2219 5631 c-1 -9 -2 -458 -3 -999 -1 -639 2 -990 9 -1002 6 -10 29
-40 52 -67 23 -26 81 -95 130 -153 48 -58 92 -110 98 -116 5 -7 26 -31 45 -55
32 -40 103 -124 119 -141 3 -4 6 482 6 1080 l0 1087 655 0 655 0 3 191 2 191
-885 0 c-801 0 -885 -2 -886 -16z"/>
<path d="M364 5434 c-21 -25 -43 -51 -49 -58 -5 -6 -35 -40 -65 -76 -30 -36
-64 -74 -75 -86 -11 -12 -29 -32 -39 -45 -11 -13 -46 -54 -78 -91 l-59 -66 78
-94 c43 -51 88 -104 99 -118 95 -111 164 -193 194 -230 19 -24 41 -50 49 -57
13 -13 41 -46 120 -142 20 -24 41 -49 46 -55 6 -6 33 -38 60 -71 84 -101 226
-269 249 -295 12 -14 58 -68 101 -120 43 -52 95 -113 114 -135 20 -23 54 -63
76 -90 22 -27 52 -62 67 -79 14 -17 58 -69 97 -116 73 -86 128 -151 146 -173
47 -54 383 -453 460 -546 11 -13 25 -29 30 -35 6 -6 24 -27 40 -47 17 -20 49
-58 72 -85 82 -97 119 -141 163 -194 25 -29 50 -58 55 -64 6 -6 32 -38 60 -71
27 -33 59 -71 71 -85 27 -31 87 -102 134 -159 19 -24 42 -50 51 -60 8 -9 76
-88 149 -176 74 -88 154 -184 179 -212 l44 -52 26 27 c14 15 44 50 66 77 21
28 42 52 45 55 3 3 25 30 49 60 25 30 49 60 55 65 10 9 123 148 149 182 6 8 4
17 -5 26 -7 8 -31 35 -53 62 -56 67 -171 204 -212 252 -10 11 -29 35 -43 53
-14 17 -32 39 -41 48 -14 15 -103 121 -134 160 -5 7 -24 28 -41 46 -17 18 -35
39 -40 48 -5 8 -30 40 -56 69 -26 30 -63 74 -84 99 -20 25 -57 69 -83 99 -25
30 -63 75 -85 100 -21 25 -48 57 -60 71 -24 29 -71 85 -124 149 -21 25 -42 49
-47 55 -6 6 -30 36 -55 66 -25 30 -47 57 -50 60 -3 3 -39 46 -80 95 -41 50
-77 92 -80 95 -3 3 -52 61 -110 130 -57 69 -109 128 -115 132 -5 4 -7 8 -3 8
3 0 -11 19 -32 43 -22 23 -45 49 -52 57 -15 18 -96 116 -118 143 -8 10 -24 29
-35 41 -11 13 -38 44 -60 71 -55 67 -320 382 -359 426 -17 20 -38 45 -46 55
-45 56 -165 200 -170 204 -3 3 -39 46 -80 95 -41 50 -77 92 -80 95 -3 3 -39
46 -80 95 -41 50 -79 95 -85 101 -5 6 -48 56 -95 112 -46 56 -87 102 -91 102
-3 0 -23 -21 -45 -46z"/>
<path d="M2957 5100 c-2 -8 0 -26 5 -38 4 -13 5 -28 2 -34 -9 -15 -10 -88 -1
-88 5 0 5 -5 1 -11 -4 -6 -6 -52 -5 -103 1 -50 2 -100 2 -111 -1 -11 0 -36 0
-55 1 -19 1 -42 0 -50 0 -8 -1 -55 0 -105 0 -49 0 -97 0 -105 0 -8 -1 -34 -3
-58 -2 -23 1 -42 5 -42 5 0 5 -5 1 -11 -4 -6 -6 -52 -5 -103 1 -50 2 -100 2
-111 0 -35 0 -200 0 -210 0 -5 0 -44 0 -85 -1 -236 -1 -270 0 -395 0 -112 0
-104 0 -200 -1 -44 -1 -87 0 -95 0 -14 0 -157 -1 -221 0 -19 26 -58 91 -135
103 -123 158 -188 188 -222 11 -13 22 -29 24 -35 3 -9 102 -12 371 -12 l367 0
22 25 c12 14 58 68 102 120 44 52 84 100 90 106 5 7 30 36 55 65 25 29 55 64
67 78 43 49 45 52 40 57 -3 3 -25 0 -48 -7 -24 -6 -57 -13 -74 -15 -42 -5
-168 -16 -182 -15 -12 1 -49 1 -75 0 -19 0 -211 1 -230 1 -10 0 -26 0 -35 0
-10 0 -40 0 -66 0 -27 0 -53 2 -58 5 -5 4 -9 2 -9 -4 0 -6 -11 -7 -27 -2 -16
4 -40 5 -54 1 -15 -4 -32 -4 -39 0 -7 4 -20 5 -30 3 -10 -3 -21 0 -24 6 -6 9
-11 208 -6 246 2 18 -2 420 -4 445 -1 14 0 29 3 35 3 5 4 24 2 41 -2 23 2 32
16 35 28 7 774 2 813 -5 154 -26 240 -64 308 -136 26 -27 60 -84 69 -115 13
-46 20 -102 18 -150 l-2 -57 39 43 c22 24 58 66 81 93 23 28 60 70 81 95 22
25 47 55 55 65 9 10 23 26 31 35 8 9 32 37 53 63 l39 47 -37 56 c-20 30 -44
59 -54 65 -9 5 -13 10 -9 10 12 0 -83 84 -135 119 -40 28 -82 48 -202 102 -11
5 -31 11 -45 13 -14 3 -43 10 -65 15 -123 30 -196 34 -635 35 l-415 1 0 305 0
305 750 0 750 0 1 208 c0 114 -2 208 -5 208 -3 1 -446 2 -983 3 -861 1 -978
-1 -981 -14z"/>
<path d="M6038 4748 c-42 -51 -90 -109 -106 -128 -16 -19 -94 -111 -172 -205
-78 -93 -160 -192 -183 -219 -48 -56 -84 -99 -114 -136 -28 -34 -99 -118 -132
-156 -14 -17 -44 -53 -66 -80 -22 -27 -67 -80 -100 -119 -33 -38 -78 -92 -100
-120 -22 -27 -42 -52 -45 -55 -3 -3 -27 -32 -55 -65 -27 -33 -54 -65 -60 -71
-5 -6 -26 -31 -46 -55 -21 -24 -66 -78 -100 -120 -35 -41 -83 -97 -105 -125
-35 -41 -233 -278 -293 -349 -9 -11 -63 -76 -121 -145 -123 -147 -113 -135
-230 -275 -50 -60 -102 -121 -114 -135 -12 -14 -67 -79 -121 -145 -122 -146
-137 -165 -150 -179 -5 -6 -32 -38 -60 -71 -27 -33 -52 -62 -55 -65 -3 -3 -82
-97 -176 -210 -94 -113 -182 -219 -197 -236 l-26 -30 25 -30 c68 -79 170 -197
209 -240 6 -6 41 -47 80 -92 38 -45 75 -82 81 -82 6 0 20 12 30 27 10 14 28
35 39 47 11 12 42 48 69 81 27 33 57 67 65 77 9 9 26 29 38 45 12 16 33 41 45
55 13 14 32 36 43 49 57 69 220 265 225 269 3 3 50 59 105 125 55 66 102 122
105 125 6 6 54 63 105 125 22 27 45 53 50 59 10 10 185 220 230 275 11 13 27
31 35 40 8 9 33 39 55 66 21 28 42 52 45 55 3 3 27 32 54 65 28 33 57 67 65
76 9 9 23 25 31 35 20 25 109 132 137 164 11 14 70 84 129 155 60 72 111 132
114 135 3 3 27 32 55 65 27 33 53 62 57 63 5 2 8 10 8 18 0 8 4 14 8 14 5 0
33 30 62 66 30 37 59 72 65 78 5 6 32 38 59 71 28 33 57 67 65 76 9 8 25 28
36 43 11 16 26 35 33 42 12 13 83 96 147 173 11 13 47 56 80 95 33 39 83 98
110 131 27 33 52 62 55 65 3 3 25 30 50 60 25 30 55 66 67 80 11 14 74 87 138
163 131 156 126 132 50 213 -58 61 -233 250 -285 307 -30 31 -56 57 -59 57 -4
0 -41 -42 -83 -92z"/>
</g>
</svg>
